<?xml version="1.0" encoding="UTF-8" standalone="no"?>
<!DOCTYPE svg PUBLIC "-//W3C//DTD SVG 1.1//EN" "http://www.w3.org/Graphics/SVG/1.1/DTD/svg11.dtd">
<svg width="100%" height="100%" viewBox="0 0 4390 3080" version="1.1" xmlns="http://www.w3.org/2000/svg" xmlns:xlink="http://www.w3.org/1999/xlink" xml:space="preserve" xmlns:serif="http://www.serif.com/" style="fill-rule:evenodd;clip-rule:evenodd;stroke-miterlimit:10;">
    <g transform="matrix(0,-4.16667,-4.16667,0,3936.99,238.358)">
        <path d="M-108.582,-108.582C-168.55,-108.582 -217.164,-59.968 -217.164,0C-217.164,59.968 -168.55,108.582 -108.582,108.582C-48.614,108.582 0,59.968 0,0C0,-59.968 -48.614,-108.582 -108.582,-108.582" style="fill:rgb(237,238,239);fill-rule:nonzero;"/>
    </g>
    <g transform="matrix(0,-4.16667,-4.16667,0,3936.99,394.883)">
        <circle cx="-71.016" cy="0" r="71.016" style="fill:none;stroke:rgb(104,105,105);stroke-width:1px;"/>
    </g>
    <g transform="matrix(4.16667,0,0,4.16667,4364.67,431.565)">
        <path d="M0,150.328L-41.66,110.722C-42.622,109.806 -43.716,109.111 -44.878,108.628C-20.88,79 -23.322,35.419 -51.431,8.695C-80.987,-19.404 -127.727,-18.223 -155.827,11.333C-183.926,40.889 -182.745,87.629 -153.189,115.729C-126.962,140.663 -87.208,142.539 -58.951,121.995C-58.412,123.511 -57.523,124.925 -56.284,126.104L-14.624,165.71C-10.394,169.732 -3.643,169.561 0.379,165.331C4.401,161.101 4.23,154.35 0,150.328" style="fill:white;fill-rule:nonzero;"/>
    </g>
    <g transform="matrix(2.87093,-3.01975,-3.01975,-2.87093,4184.67,678.329)">
        <path d="M-42.894,-18.405C-75.581,-18.406 -102.079,8.093 -102.079,40.78C-102.08,73.467 -75.581,99.965 -42.894,99.965C-10.207,99.966 16.291,73.467 16.291,40.78C16.292,8.093 -10.207,-18.405 -42.894,-18.405" style="fill:rgb(165,108,45);fill-rule:nonzero;"/>
    </g>
    <g transform="matrix(4.16667,0,0,4.16667,3782.33,624.975)">
        <path d="M0,-7.609C22.522,-31.299 59.984,-32.245 83.674,-9.723C88.87,-4.783 92.972,0.876 95.972,6.951C94.082,-5.614 88.152,-17.667 78.231,-27.1C54.541,-49.622 17.079,-48.676 -5.443,-24.986C-23.025,-6.493 -26.304,20.393 -15.627,42.013C-18.249,24.578 -13.089,6.159 0,-7.609" style="fill:rgb(142,88,35);fill-rule:nonzero;"/>
    </g>
    <g transform="matrix(4.16667,0,0,4.16667,3050.05,69.3458)">
        <path d="M0,439.719L-589.322,439.719C-606.304,439.719 -620.071,425.952 -620.071,408.971L-620.071,30.749C-620.071,13.767 -606.304,0 -589.322,0L0,0C16.982,0 30.748,13.767 30.748,30.749L30.748,408.971C30.748,425.952 16.982,439.719 0,439.719" style="fill:rgb(237,238,239);fill-rule:nonzero;"/>
    </g>
    <g transform="matrix(4.16667,0,0,4.16667,2804.41,222.635)">
        <path d="M0,209.348L-466.164,209.348C-476.519,209.348 -484.913,200.954 -484.913,190.599L-484.913,18.749C-484.913,8.394 -476.519,0 -466.164,0L0,0C10.355,0 18.749,8.394 18.749,18.749L18.749,190.599C18.749,200.954 10.355,209.348 0,209.348" style="fill:rgb(214,214,214);fill-rule:nonzero;"/>
    </g>
    <g transform="matrix(4.16667,0,0,4.16667,825.037,261.308)">
        <path d="M0,17.52L24.527,17.52C25.979,17.52 27.155,16.343 27.155,14.892L27.155,2.628C27.155,1.177 25.979,0 24.527,0L0,0C-1.451,0 -2.628,1.177 -2.628,2.628L-2.628,14.892C-2.628,16.343 -1.451,17.52 0,17.52" style="fill:rgb(77,79,82);fill-rule:nonzero;"/>
    </g>
    <g transform="matrix(4.16667,0,0,4.16667,825.037,351.343)">
        <path d="M0,29.783L24.527,29.783C25.979,29.783 27.155,28.606 27.155,27.155L27.155,2.628C27.155,1.176 25.979,0 24.527,0L0,0C-1.451,0 -2.628,1.176 -2.628,2.628L-2.628,27.155C-2.628,28.606 -1.451,29.783 0,29.783" style="fill:rgb(77,79,82);fill-rule:nonzero;"/>
    </g>
    <g transform="matrix(4.16667,0,0,4.16667,825.037,490.039)">
        <path d="M0,29.783L39.711,29.783C41.162,29.783 42.339,28.606 42.339,27.155L42.339,2.628C42.339,1.176 41.162,0 39.711,0L0,0C-1.451,0 -2.628,1.176 -2.628,2.628L-2.628,27.155C-2.628,28.606 -1.451,29.783 0,29.783" style="fill:rgb(77,79,82);fill-rule:nonzero;"/>
    </g>
    <g transform="matrix(4.16667,0,0,4.16667,1107.3,351.343)">
        <path d="M0,29.783L24.527,29.783C25.979,29.783 27.155,28.606 27.155,27.155L27.155,2.628C27.155,1.176 25.979,0 24.527,0L0,0C-1.451,0 -2.628,1.176 -2.628,2.628L-2.628,27.155C-2.628,28.606 -1.451,29.783 0,29.783" style="fill:rgb(77,79,82);fill-rule:nonzero;"/>
    </g>
    <g transform="matrix(4.16667,0,0,4.16667,1146.23,500.989)">
        <path d="M0,24.527L0,0C0,-1.452 -1.177,-2.628 -2.628,-2.628L-27.155,-2.628C-28.607,-2.628 -29.783,-1.452 -29.783,0L-29.783,24.527C-29.783,25.978 -28.607,27.155 -27.155,27.155L-2.628,27.155C-1.177,27.155 0,25.978 0,24.527" style="fill:rgb(77,79,82);fill-rule:nonzero;"/>
    </g>
    <g transform="matrix(4.16667,0,0,4.16667,966.167,351.343)">
        <path d="M0,29.783L24.527,29.783C25.979,29.783 27.155,28.606 27.155,27.155L27.155,2.628C27.155,1.176 25.979,0 24.527,0L0,0C-1.451,0 -2.628,1.176 -2.628,2.628L-2.628,27.155C-2.628,28.606 -1.451,29.783 0,29.783" style="fill:rgb(77,79,82);fill-rule:nonzero;"/>
    </g>
    <g transform="matrix(4.16667,0,0,4.16667,1281.28,490.039)">
        <path d="M0,29.783C1.451,29.783 2.628,28.606 2.628,27.155L2.628,2.628C2.628,1.176 1.451,0 0,0L-24.527,0C-25.979,0 -27.155,1.176 -27.155,2.628L-27.155,27.155C-27.155,28.606 -25.979,29.783 -24.527,29.783L0,29.783Z" style="fill:rgb(77,79,82);fill-rule:nonzero;"/>
    </g>
    <g transform="matrix(4.16667,0,0,4.16667,1419.97,490.039)">
        <path d="M0,29.783C1.451,29.783 2.628,28.606 2.628,27.155L2.628,2.628C2.628,1.176 1.451,0 0,0L-24.527,0C-25.979,0 -27.155,1.176 -27.155,2.628L-27.155,27.155C-27.155,28.606 -25.979,29.783 -24.527,29.783L0,29.783Z" style="fill:rgb(77,79,82);fill-rule:nonzero;"/>
    </g>
    <g transform="matrix(4.16667,0,0,4.16667,1569.62,500.989)">
        <path d="M0,24.527L0,0C0,-1.452 -1.177,-2.628 -2.628,-2.628L-27.155,-2.628C-28.607,-2.628 -29.783,-1.452 -29.783,0L-29.783,24.527C-29.783,25.978 -28.607,27.155 -27.155,27.155L-2.628,27.155C-1.177,27.155 0,25.978 0,24.527" style="fill:rgb(77,79,82);fill-rule:nonzero;"/>
    </g>
    <g transform="matrix(4.16667,0,0,4.16667,1704.67,490.039)">
        <path d="M0,29.783C1.451,29.783 2.628,28.606 2.628,27.155L2.628,2.628C2.628,1.176 1.451,0 0,0L-24.527,0C-25.979,0 -27.155,1.176 -27.155,2.628L-27.155,27.155C-27.155,28.606 -25.979,29.783 -24.527,29.783L0,29.783Z" style="fill:rgb(77,79,82);fill-rule:nonzero;"/>
    </g>
    <g transform="matrix(4.16667,0,0,4.16667,1730.21,605.617)">
        <path d="M0,-24.527L0,0C0,1.452 1.177,2.628 2.628,2.628L27.155,2.628C28.607,2.628 29.783,1.452 29.783,0L29.783,-24.527C29.783,-25.978 28.607,-27.155 27.155,-27.155L2.628,-27.155C1.177,-27.155 0,-25.978 0,-24.527" style="fill:rgb(77,79,82);fill-rule:nonzero;"/>
    </g>
    <g transform="matrix(4.16667,0,0,4.16667,1868.91,605.617)">
        <path d="M0,-24.527L0,0C0,1.452 1.177,2.628 2.628,2.628L27.155,2.628C28.607,2.628 29.783,1.452 29.783,0L29.783,-24.527C29.783,-25.978 28.607,-27.155 27.155,-27.155L2.628,-27.155C1.177,-27.155 0,-25.978 0,-24.527" style="fill:rgb(77,79,82);fill-rule:nonzero;"/>
    </g>
    <g transform="matrix(4.16667,0,0,4.16667,2139,503.422)">
        <path d="M0,24.527L0,0C0,-1.452 -1.177,-2.628 -2.628,-2.628L-27.155,-2.628C-28.607,-2.628 -29.783,-1.452 -29.783,0L-29.783,24.527C-29.783,25.978 -28.607,27.155 -27.155,27.155L-2.628,27.155C-1.177,27.155 0,25.978 0,24.527" style="fill:rgb(77,79,82);fill-rule:nonzero;"/>
    </g>
    <g transform="matrix(4.16667,0,0,4.16667,2277.7,500.989)">
        <path d="M0,24.527L0,0C0,-1.452 -1.177,-2.628 -2.628,-2.628L-27.155,-2.628C-28.607,-2.628 -29.783,-1.452 -29.783,0L-29.783,24.527C-29.783,25.978 -28.607,27.155 -27.155,27.155L-2.628,27.155C-1.177,27.155 0,25.978 0,24.527" style="fill:rgb(77,79,82);fill-rule:nonzero;"/>
    </g>
    <g transform="matrix(4.16667,0,0,4.16667,2292.3,603.183)">
        <path d="M0,-24.527L0,0C0,1.452 1.177,2.628 2.628,2.628L27.155,2.628C28.607,2.628 29.783,1.452 29.783,0L29.783,-24.527C29.783,-25.978 28.607,-27.155 27.155,-27.155L2.628,-27.155C1.177,-27.155 0,-25.978 0,-24.527" style="fill:rgb(77,79,82);fill-rule:nonzero;"/>
    </g>
    <g transform="matrix(4.16667,0,0,4.16667,2438.3,603.183)">
        <path d="M0,-24.527L0,0C0,1.452 1.177,2.628 2.628,2.628L27.155,2.628C28.607,2.628 29.783,1.452 29.783,0L29.783,-24.527C29.783,-25.978 28.607,-27.155 27.155,-27.155L2.628,-27.155C1.177,-27.155 0,-25.978 0,-24.527" style="fill:rgb(77,79,82);fill-rule:nonzero;"/>
    </g>
    <g transform="matrix(4.16667,0,0,4.16667,2701.09,500.989)">
        <path d="M0,24.527L0,0C0,-1.452 -1.177,-2.628 -2.628,-2.628L-27.155,-2.628C-28.607,-2.628 -29.783,-1.452 -29.783,0L-29.783,24.527C-29.783,25.978 -28.607,27.155 -27.155,27.155L-2.628,27.155C-1.177,27.155 0,25.978 0,24.527" style="fill:rgb(77,79,82);fill-rule:nonzero;"/>
    </g>
    <g transform="matrix(4.16667,0,0,4.16667,2825.19,614.134)">
        <path d="M0,-29.783L-24.527,-29.783C-25.979,-29.783 -27.155,-28.606 -27.155,-27.155L-27.155,-2.628C-27.155,-1.176 -25.979,0 -24.527,0L0,0C1.451,0 2.628,-1.176 2.628,-2.628L2.628,-27.155C2.628,-28.606 1.451,-29.783 0,-29.783" style="fill:rgb(77,79,82);fill-rule:nonzero;"/>
    </g>
    <g transform="matrix(4.16667,0,0,4.16667,1075.06,628.735)">
        <path d="M0,29.783L24.527,29.783C25.979,29.783 27.155,28.606 27.155,27.155L27.155,2.628C27.155,1.176 25.979,0 24.527,0L0,0C-1.451,0 -2.628,1.176 -2.628,2.628L-2.628,27.155C-2.628,28.606 -1.451,29.783 0,29.783" style="fill:rgb(77,79,82);fill-rule:nonzero;"/>
    </g>
    <g transform="matrix(4.16667,0,0,4.16667,825.037,628.735)">
        <path d="M0,29.783L49.055,29.783C50.506,29.783 51.683,28.606 51.683,27.155L51.683,2.628C51.683,1.176 50.506,0 49.055,0L0,0C-1.451,0 -2.628,1.176 -2.628,2.628L-2.628,27.155C-2.628,28.606 -1.451,29.783 0,29.783" style="fill:rgb(77,79,82);fill-rule:nonzero;"/>
    </g>
    <g transform="matrix(4.16667,0,0,4.16667,1326.9,639.685)">
        <path d="M0,24.527L0,0C0,-1.452 -1.177,-2.628 -2.628,-2.628L-27.155,-2.628C-28.607,-2.628 -29.783,-1.452 -29.783,0L-29.783,24.527C-29.783,25.978 -28.607,27.155 -27.155,27.155L-2.628,27.155C-1.177,27.155 0,25.978 0,24.527" style="fill:rgb(77,79,82);fill-rule:nonzero;"/>
    </g>
    <g transform="matrix(4.16667,0,0,4.16667,1465.6,639.685)">
        <path d="M0,24.527L0,0C0,-1.452 -1.177,-2.628 -2.628,-2.628L-27.155,-2.628C-28.607,-2.628 -29.783,-1.452 -29.783,0L-29.783,24.527C-29.783,25.978 -28.607,27.155 -27.155,27.155L-2.628,27.155C-1.177,27.155 0,25.978 0,24.527" style="fill:rgb(77,79,82);fill-rule:nonzero;"/>
    </g>
    <g transform="matrix(4.16667,0,0,4.16667,1498.45,628.735)">
        <path d="M0,29.783L24.527,29.783C25.979,29.783 27.155,28.606 27.155,27.155L27.155,2.628C27.155,1.176 25.979,0 24.527,0L0,0C-1.451,0 -2.628,1.176 -2.628,2.628L-2.628,27.155C-2.628,28.606 -1.451,29.783 0,29.783" style="fill:rgb(77,79,82);fill-rule:nonzero;"/>
    </g>
    <g transform="matrix(4.16667,0,0,4.16667,1750.29,642.119)">
        <path d="M0,24.527L0,0C0,-1.452 -1.177,-2.628 -2.628,-2.628L-27.155,-2.628C-28.607,-2.628 -29.783,-1.452 -29.783,0L-29.783,24.527C-29.783,25.978 -28.607,27.155 -27.155,27.155L-2.628,27.155C-1.177,27.155 0,25.978 0,24.527" style="fill:rgb(77,79,82);fill-rule:nonzero;"/>
    </g>
    <g transform="matrix(4.16667,0,0,4.16667,1888.99,642.119)">
        <path d="M0,24.527L0,0C0,-1.452 -1.177,-2.628 -2.628,-2.628L-27.155,-2.628C-28.607,-2.628 -29.783,-1.452 -29.783,0L-29.783,24.527C-29.783,25.978 -28.607,27.155 -27.155,27.155L-2.628,27.155C-1.177,27.155 0,25.978 0,24.527" style="fill:rgb(77,79,82);fill-rule:nonzero;"/>
    </g>
    <g transform="matrix(4.16667,0,0,4.16667,2034.98,642.119)">
        <path d="M0,24.527L0,0C0,-1.452 -1.177,-2.628 -2.628,-2.628L-27.155,-2.628C-28.607,-2.628 -29.783,-1.452 -29.783,0L-29.783,24.527C-29.783,25.978 -28.607,27.155 -27.155,27.155L-2.628,27.155C-1.177,27.155 0,25.978 0,24.527" style="fill:rgb(77,79,82);fill-rule:nonzero;"/>
    </g>
    <g transform="matrix(4.16667,0,0,4.16667,2060.53,628.735)">
        <path d="M0,29.783L24.527,29.783C25.979,29.783 27.155,28.606 27.155,27.155L27.155,2.628C27.155,1.176 25.979,0 24.527,0L0,0C-1.451,0 -2.628,1.176 -2.628,2.628L-2.628,27.155C-2.628,28.606 -1.451,29.783 0,29.783" style="fill:rgb(77,79,82);fill-rule:nonzero;"/>
    </g>
    <g transform="matrix(4.16667,0,0,4.16667,2199.23,628.735)">
        <path d="M0,29.783L24.527,29.783C25.979,29.783 27.155,28.606 27.155,27.155L27.155,2.628C27.155,1.176 25.979,0 24.527,0L0,0C-1.451,0 -2.628,1.176 -2.628,2.628L-2.628,27.155C-2.628,28.606 -1.451,29.783 0,29.783" style="fill:rgb(77,79,82);fill-rule:nonzero;"/>
    </g>
    <g transform="matrix(4.16667,0,0,4.16667,2458.37,639.685)">
        <path d="M0,24.527L0,0C0,-1.452 -1.177,-2.628 -2.628,-2.628L-27.155,-2.628C-28.607,-2.628 -29.783,-1.452 -29.783,0L-29.783,24.527C-29.783,25.978 -28.607,27.155 -27.155,27.155L-2.628,27.155C-1.177,27.155 0,25.978 0,24.527" style="fill:rgb(77,79,82);fill-rule:nonzero;"/>
    </g>
    <g transform="matrix(4.16667,0,0,4.16667,2597.07,639.685)">
        <path d="M0,24.527L0,0C0,-1.452 -1.177,-2.628 -2.628,-2.628L-27.155,-2.628C-28.607,-2.628 -29.783,-1.452 -29.783,0L-29.783,24.527C-29.783,25.978 -28.607,27.155 -27.155,27.155L-2.628,27.155C-1.177,27.155 0,25.978 0,24.527" style="fill:rgb(77,79,82);fill-rule:nonzero;"/>
    </g>
    <g transform="matrix(4.16667,0,0,4.16667,1133.45,764.998)">
        <path d="M0,29.783L24.527,29.783C25.979,29.783 27.155,28.606 27.155,27.155L27.155,2.628C27.155,1.176 25.979,0 24.527,0L0,0C-1.451,0 -2.628,1.176 -2.628,2.628L-2.628,27.155C-2.628,28.606 -1.451,29.783 0,29.783" style="fill:rgb(77,79,82);fill-rule:nonzero;"/>
    </g>
    <g transform="matrix(4.16667,0,0,4.16667,1068.36,1039.96)">
        <path d="M0,-33.287L-24.527,-33.287C-25.979,-33.287 -27.155,-32.11 -27.155,-30.659L-27.155,-2.628C-27.155,-1.176 -25.979,0 -24.527,0L0,0C1.451,0 2.628,-1.176 2.628,-2.628L2.628,-30.659C2.628,-32.11 1.451,-33.287 0,-33.287" style="fill:rgb(77,79,82);fill-rule:nonzero;"/>
    </g>
    <g transform="matrix(4.16667,0,0,4.16667,2405.45,1044.82)">
        <path d="M0,-33.287L-24.527,-33.287C-25.979,-33.287 -27.155,-32.11 -27.155,-30.659L-27.155,-2.628C-27.155,-1.176 -25.979,0 -24.527,0L0,0C1.451,0 2.628,-1.176 2.628,-2.628L2.628,-30.659C2.628,-32.11 1.451,-33.287 0,-33.287" style="fill:rgb(77,79,82);fill-rule:nonzero;"/>
    </g>
    <g transform="matrix(4.16667,0,0,4.16667,2690.14,1039.96)">
        <path d="M0,-33.287L-24.527,-33.287C-25.979,-33.287 -27.155,-32.11 -27.155,-30.659L-27.155,-2.628C-27.155,-1.176 -25.979,0 -24.527,0L0,0C1.451,0 2.628,-1.176 2.628,-2.628L2.628,-30.659C2.628,-32.11 1.451,-33.287 0,-33.287" style="fill:rgb(77,79,82);fill-rule:nonzero;"/>
    </g>
    <g transform="matrix(4.16667,0,0,4.16667,2541.71,1039.96)">
        <path d="M0,-16.644L-24.527,-16.644C-25.979,-16.644 -27.155,-15.467 -27.155,-14.016L-27.155,-2.628C-27.155,-1.177 -25.979,0 -24.527,0L0,0C1.451,0 2.628,-1.177 2.628,-2.628L2.628,-14.016C2.628,-15.467 1.451,-16.644 0,-16.644" style="fill:rgb(77,79,82);fill-rule:nonzero;"/>
    </g>
    <g transform="matrix(4.16667,0,0,4.16667,2825.19,1044.83)">
        <path d="M0,-16.644L-24.527,-16.644C-25.979,-16.644 -27.155,-15.467 -27.155,-14.016L-27.155,-2.628C-27.155,-1.177 -25.979,0 -24.527,0L0,0C1.451,0 2.628,-1.177 2.628,-2.628L2.628,-14.016C2.628,-15.467 1.451,-16.644 0,-16.644" style="fill:rgb(77,79,82);fill-rule:nonzero;"/>
    </g>
    <g transform="matrix(4.16667,0,0,4.16667,1209.49,1039.96)">
        <path d="M0,-33.287L-24.527,-33.287C-25.979,-33.287 -27.155,-32.11 -27.155,-30.659L-27.155,-2.628C-27.155,-1.176 -25.979,0 -24.527,0L0,0C1.451,0 2.628,-1.176 2.628,-2.628L2.628,-30.659C2.628,-32.11 1.451,-33.287 0,-33.287" style="fill:rgb(77,79,82);fill-rule:nonzero;"/>
    </g>
    <g transform="matrix(4.16667,0,0,4.16667,1382.26,1039.96)">
        <path d="M0,-33.287L-33.287,-33.287C-34.739,-33.287 -35.915,-32.11 -35.915,-30.659L-35.915,-2.628C-35.915,-1.176 -34.739,0 -33.287,0L0,0C1.451,0 2.628,-1.176 2.628,-2.628L2.628,-30.659C2.628,-32.11 1.451,-33.287 0,-33.287" style="fill:rgb(77,79,82);fill-rule:nonzero;"/>
    </g>
    <g transform="matrix(4.16667,0,0,4.16667,2259.45,1039.96)">
        <path d="M0,-33.287L-33.287,-33.287C-34.739,-33.287 -35.915,-32.11 -35.915,-30.659L-35.915,-2.628C-35.915,-1.176 -34.739,0 -33.287,0L0,0C1.451,0 2.628,-1.176 2.628,-2.628L2.628,-30.659C2.628,-32.11 1.451,-33.287 0,-33.287" style="fill:rgb(77,79,82);fill-rule:nonzero;"/>
    </g>
    <g transform="matrix(4.16667,0,0,4.16667,2082.43,1039.96)">
        <path d="M0,-33.287L-159.428,-33.287C-160.879,-33.287 -162.056,-32.11 -162.056,-30.659L-162.056,-2.628C-162.056,-1.176 -160.879,0 -159.428,0L0,0C1.451,0 2.628,-1.176 2.628,-2.628L2.628,-30.659C2.628,-32.11 1.451,-33.287 0,-33.287" style="fill:rgb(77,79,82);fill-rule:nonzero;"/>
    </g>
    <g transform="matrix(4.16667,0,0,4.16667,927.235,1039.96)">
        <path d="M0,-33.287L-24.527,-33.287C-25.979,-33.287 -27.155,-32.11 -27.155,-30.659L-27.155,-2.628C-27.155,-1.176 -25.979,0 -24.527,0L0,0C1.451,0 2.628,-1.176 2.628,-2.628L2.628,-30.659C2.628,-32.11 1.451,-33.287 0,-33.287" style="fill:rgb(77,79,82);fill-rule:nonzero;"/>
    </g>
    <g transform="matrix(4.16667,0,0,4.16667,1272.15,764.998)">
        <path d="M0,29.783L24.527,29.783C25.979,29.783 27.155,28.606 27.155,27.155L27.155,2.628C27.155,1.176 25.979,0 24.527,0L0,0C-1.451,0 -2.628,1.176 -2.628,2.628L-2.628,27.155C-2.628,28.606 -1.451,29.783 0,29.783" style="fill:rgb(77,79,82);fill-rule:nonzero;"/>
    </g>
    <g transform="matrix(4.16667,0,0,4.16667,1513.05,764.998)">
        <path d="M0,29.783C1.451,29.783 2.628,28.606 2.628,27.155L2.628,2.628C2.628,1.176 1.451,0 0,0L-24.527,0C-25.979,0 -27.155,1.176 -27.155,2.628L-27.155,27.155C-27.155,28.606 -25.979,29.783 -24.527,29.783L0,29.783Z" style="fill:rgb(77,79,82);fill-rule:nonzero;"/>
    </g>
    <g transform="matrix(4.16667,0,0,4.16667,1556.84,764.998)">
        <path d="M0,29.783L24.527,29.783C25.979,29.783 27.155,28.606 27.155,27.155L27.155,2.628C27.155,1.176 25.979,0 24.527,0L0,0C-1.451,0 -2.628,1.176 -2.628,2.628L-2.628,27.155C-2.628,28.606 -1.451,29.783 0,29.783" style="fill:rgb(77,79,82);fill-rule:nonzero;"/>
    </g>
    <g transform="matrix(4.16667,0,0,4.16667,1695.54,767.432)">
        <path d="M0,29.783L24.527,29.783C25.979,29.783 27.155,28.606 27.155,27.155L27.155,2.628C27.155,1.176 25.979,0 24.527,0L0,0C-1.451,0 -2.628,1.176 -2.628,2.628L-2.628,27.155C-2.628,28.606 -1.451,29.783 0,29.783" style="fill:rgb(77,79,82);fill-rule:nonzero;"/>
    </g>
    <g transform="matrix(4.16667,0,0,4.16667,1834.24,767.432)">
        <path d="M0,29.783L24.527,29.783C25.979,29.783 27.155,28.606 27.155,27.155L27.155,2.628C27.155,1.176 25.979,0 24.527,0L0,0C-1.451,0 -2.628,1.176 -2.628,2.628L-2.628,27.155C-2.628,28.606 -1.451,29.783 0,29.783" style="fill:rgb(77,79,82);fill-rule:nonzero;"/>
    </g>
    <g transform="matrix(4.16667,0,0,4.16667,2082.43,891.526)">
        <path d="M0,-29.783L-24.527,-29.783C-25.979,-29.783 -27.155,-28.606 -27.155,-27.155L-27.155,-2.628C-27.155,-1.176 -25.979,0 -24.527,0L0,0C1.451,0 2.628,-1.176 2.628,-2.628L2.628,-27.155C2.628,-28.606 1.451,-29.783 0,-29.783" style="fill:rgb(77,79,82);fill-rule:nonzero;"/>
    </g>
    <g transform="matrix(4.16667,0,0,4.16667,2118.93,764.998)">
        <path d="M0,29.783L24.527,29.783C25.979,29.783 27.155,28.606 27.155,27.155L27.155,2.628C27.155,1.176 25.979,0 24.527,0L0,0C-1.451,0 -2.628,1.176 -2.628,2.628L-2.628,27.155C-2.628,28.606 -1.451,29.783 0,29.783" style="fill:rgb(77,79,82);fill-rule:nonzero;"/>
    </g>
    <g transform="matrix(4.16667,0,0,4.16667,2257.63,764.998)">
        <path d="M0,29.783L24.527,29.783C25.979,29.783 27.155,28.606 27.155,27.155L27.155,2.628C27.155,1.176 25.979,0 24.527,0L0,0C-1.451,0 -2.628,1.176 -2.628,2.628L-2.628,27.155C-2.628,28.606 -1.451,29.783 0,29.783" style="fill:rgb(77,79,82);fill-rule:nonzero;"/>
    </g>
    <g transform="matrix(4.16667,0,0,4.16667,2403.62,764.998)">
        <path d="M0,29.783L24.527,29.783C25.979,29.783 27.155,28.606 27.155,27.155L27.155,2.628C27.155,1.176 25.979,0 24.527,0L0,0C-1.451,0 -2.628,1.176 -2.628,2.628L-2.628,27.155C-2.628,28.606 -1.451,29.783 0,29.783" style="fill:rgb(77,79,82);fill-rule:nonzero;"/>
    </g>
    <g transform="matrix(4.16667,0,0,4.16667,2825.19,889.093)">
        <path d="M0,-29.783L-67.888,-29.783C-69.34,-29.783 -70.516,-28.606 -70.516,-27.155L-70.516,-2.628C-70.516,-1.176 -69.34,0 -67.888,0L0,0C1.451,0 2.628,-1.176 2.628,-2.628L2.628,-27.155C2.628,-28.606 1.451,-29.783 0,-29.783" style="fill:rgb(77,79,82);fill-rule:nonzero;"/>
    </g>
    <g transform="matrix(4.16667,0,0,4.16667,1106.08,775.949)">
        <path d="M0,24.527L0,0C0,-1.452 -1.177,-2.628 -2.628,-2.628L-67.45,-2.628C-68.902,-2.628 -70.078,-1.452 -70.078,0L-70.078,24.527C-70.078,25.978 -68.902,27.155 -67.45,27.155L-2.628,27.155C-1.177,27.155 0,25.978 0,24.527" style="fill:rgb(77,79,82);fill-rule:nonzero;"/>
    </g>
    <g transform="matrix(4.16667,0,0,4.16667,2825.19,752.83)">
        <path d="M0,-29.783L-49.493,-29.783C-50.944,-29.783 -52.121,-28.606 -52.121,-27.155L-52.121,-2.628C-52.121,-1.176 -50.944,0 -49.493,0L0,0C1.451,0 2.628,-1.176 2.628,-2.628L2.628,-27.155C2.628,-28.606 1.451,-29.783 0,-29.783" style="fill:rgb(77,79,82);fill-rule:nonzero;"/>
    </g>
    <g transform="matrix(4.16667,0,0,4.16667,1248.43,351.343)">
        <path d="M0,29.783L24.527,29.783C25.979,29.783 27.155,28.606 27.155,27.155L27.155,2.628C27.155,1.176 25.979,0 24.527,0L0,0C-1.451,0 -2.628,1.176 -2.628,2.628L-2.628,27.155C-2.628,28.606 -1.451,29.783 0,29.783" style="fill:rgb(77,79,82);fill-rule:nonzero;"/>
    </g>
    <g transform="matrix(4.16667,0,0,4.16667,1389.56,351.343)">
        <path d="M0,29.783L24.527,29.783C25.979,29.783 27.155,28.606 27.155,27.155L27.155,2.628C27.155,1.176 25.979,0 24.527,0L0,0C-1.451,0 -2.628,1.176 -2.628,2.628L-2.628,27.155C-2.628,28.606 -1.451,29.783 0,29.783" style="fill:rgb(77,79,82);fill-rule:nonzero;"/>
    </g>
    <g transform="matrix(4.16667,0,0,4.16667,1519.74,362.293)">
        <path d="M0,24.527C0,25.978 1.177,27.155 2.628,27.155L27.155,27.155C28.607,27.155 29.783,25.978 29.783,24.527L29.783,0C29.783,-1.452 28.607,-2.628 27.155,-2.628L2.628,-2.628C1.177,-2.628 0,-1.452 0,0L0,24.527Z" style="fill:rgb(77,79,82);fill-rule:nonzero;"/>
    </g>
    <g transform="matrix(4.16667,0,0,4.16667,1660.87,464.487)">
        <path d="M0,-24.527L0,0C0,1.452 1.177,2.628 2.628,2.628L27.155,2.628C28.607,2.628 29.783,1.452 29.783,0L29.783,-24.527C29.783,-25.978 28.607,-27.155 27.155,-27.155L2.628,-27.155C1.177,-27.155 0,-25.978 0,-24.527" style="fill:rgb(77,79,82);fill-rule:nonzero;"/>
    </g>
    <g transform="matrix(4.16667,0,0,4.16667,1915.14,475.437)">
        <path d="M0,-29.783L-24.527,-29.783C-25.979,-29.783 -27.155,-28.606 -27.155,-27.155L-27.155,-2.628C-27.155,-1.176 -25.979,0 -24.527,0L0,0C1.451,0 2.628,-1.176 2.628,-2.628L2.628,-27.155C2.628,-28.606 1.451,-29.783 0,-29.783" style="fill:rgb(77,79,82);fill-rule:nonzero;"/>
    </g>
    <g transform="matrix(4.16667,0,0,4.16667,2056.27,351.343)">
        <path d="M0,29.783C1.451,29.783 2.628,28.606 2.628,27.155L2.628,2.628C2.628,1.176 1.451,0 0,0L-24.527,0C-25.979,0 -27.155,1.176 -27.155,2.628L-27.155,27.155C-27.155,28.606 -25.979,29.783 -24.527,29.783L0,29.783Z" style="fill:rgb(77,79,82);fill-rule:nonzero;"/>
    </g>
    <g transform="matrix(4.16667,0,0,4.16667,2197.4,351.343)">
        <path d="M0,29.783C1.451,29.783 2.628,28.606 2.628,27.155L2.628,2.628C2.628,1.176 1.451,0 0,0L-24.527,0C-25.979,0 -27.155,1.176 -27.155,2.628L-27.155,27.155C-27.155,28.606 -25.979,29.783 -24.527,29.783L0,29.783Z" style="fill:rgb(77,79,82);fill-rule:nonzero;"/>
    </g>
    <g transform="matrix(4.16667,0,0,4.16667,2338.53,475.437)">
        <path d="M0,-29.783L-24.527,-29.783C-25.979,-29.783 -27.155,-28.606 -27.155,-27.155L-27.155,-2.628C-27.155,-1.176 -25.979,0 -24.527,0L0,0C1.451,0 2.628,-1.176 2.628,-2.628L2.628,-27.155C2.628,-28.606 1.451,-29.783 0,-29.783" style="fill:rgb(77,79,82);fill-rule:nonzero;"/>
    </g>
    <g transform="matrix(4.16667,0,0,4.16667,2479.66,475.437)">
        <path d="M0,-29.783L-24.527,-29.783C-25.979,-29.783 -27.155,-28.606 -27.155,-27.155L-27.155,-2.628C-27.155,-1.176 -25.979,0 -24.527,0L0,0C1.451,0 2.628,-1.176 2.628,-2.628L2.628,-27.155C2.628,-28.606 1.451,-29.783 0,-29.783" style="fill:rgb(77,79,82);fill-rule:nonzero;"/>
    </g>
    <g transform="matrix(4.16667,0,0,4.16667,2620.79,475.437)">
        <path d="M0,-29.783L-24.527,-29.783C-25.979,-29.783 -27.155,-28.606 -27.155,-27.155L-27.155,-2.628C-27.155,-1.176 -25.979,0 -24.527,0L0,0C1.451,0 2.628,-1.176 2.628,-2.628L2.628,-27.155C2.628,-28.606 1.451,-29.783 0,-29.783" style="fill:rgb(77,79,82);fill-rule:nonzero;"/>
    </g>
    <g transform="matrix(4.16667,0,0,4.16667,2825.19,475.437)">
        <path d="M0,-29.783L-39.711,-29.783C-41.162,-29.783 -42.339,-28.606 -42.339,-27.155L-42.339,-2.628C-42.339,-1.176 -41.162,0 -39.711,0L0,0C1.451,0 2.628,-1.176 2.628,-2.628L2.628,-27.155C2.628,-28.606 1.451,-29.783 0,-29.783" style="fill:rgb(77,79,82);fill-rule:nonzero;"/>
    </g>
    <g transform="matrix(4.16667,0,0,4.16667,971.033,261.308)">
        <path d="M0,17.52L24.527,17.52C25.979,17.52 27.155,16.343 27.155,14.892L27.155,2.628C27.155,1.177 25.979,0 24.527,0L0,0C-1.451,0 -2.628,1.177 -2.628,2.628L-2.628,14.892C-2.628,16.343 -1.451,17.52 0,17.52" style="fill:rgb(77,79,82);fill-rule:nonzero;"/>
    </g>
    <g transform="matrix(4.16667,0,0,4.16667,1117.03,261.308)">
        <path d="M0,17.52L24.527,17.52C25.979,17.52 27.155,16.343 27.155,14.892L27.155,2.628C27.155,1.177 25.979,0 24.527,0L0,0C-1.451,0 -2.628,1.177 -2.628,2.628L-2.628,14.892C-2.628,16.343 -1.451,17.52 0,17.52" style="fill:rgb(77,79,82);fill-rule:nonzero;"/>
    </g>
    <g transform="matrix(4.16667,0,0,4.16667,1263.03,261.308)">
        <path d="M0,17.52L24.527,17.52C25.979,17.52 27.155,16.343 27.155,14.892L27.155,2.628C27.155,1.177 25.979,0 24.527,0L0,0C-1.451,0 -2.628,1.177 -2.628,2.628L-2.628,14.892C-2.628,16.343 -1.451,17.52 0,17.52" style="fill:rgb(77,79,82);fill-rule:nonzero;"/>
    </g>
    <g transform="matrix(4.16667,0,0,4.16667,1409.02,261.308)">
        <path d="M0,17.52L24.527,17.52C25.979,17.52 27.155,16.343 27.155,14.892L27.155,2.628C27.155,1.177 25.979,0 24.527,0L0,0C-1.451,0 -2.628,1.177 -2.628,2.628L-2.628,14.892C-2.628,16.343 -1.451,17.52 0,17.52" style="fill:rgb(77,79,82);fill-rule:nonzero;"/>
    </g>
    <g transform="matrix(4.16667,0,0,4.16667,1555.02,261.308)">
        <path d="M0,17.52L24.527,17.52C25.979,17.52 27.155,16.343 27.155,14.892L27.155,2.628C27.155,1.177 25.979,0 24.527,0L0,0C-1.451,0 -2.628,1.177 -2.628,2.628L-2.628,14.892C-2.628,16.343 -1.451,17.52 0,17.52" style="fill:rgb(77,79,82);fill-rule:nonzero;"/>
    </g>
    <g transform="matrix(4.16667,0,0,4.16667,1701.02,261.308)">
        <path d="M0,17.52L24.527,17.52C25.979,17.52 27.155,16.343 27.155,14.892L27.155,2.628C27.155,1.177 25.979,0 24.527,0L0,0C-1.451,0 -2.628,1.177 -2.628,2.628L-2.628,14.892C-2.628,16.343 -1.451,17.52 0,17.52" style="fill:rgb(77,79,82);fill-rule:nonzero;"/>
    </g>
    <g transform="matrix(4.16667,0,0,4.16667,1847.01,261.308)">
        <path d="M0,17.52L24.527,17.52C25.979,17.52 27.155,16.343 27.155,14.892L27.155,2.628C27.155,1.177 25.979,0 24.527,0L0,0C-1.451,0 -2.628,1.177 -2.628,2.628L-2.628,14.892C-2.628,16.343 -1.451,17.52 0,17.52" style="fill:rgb(77,79,82);fill-rule:nonzero;"/>
    </g>
    <g transform="matrix(4.16667,0,0,4.16667,1993.01,261.308)">
        <path d="M0,17.52L24.527,17.52C25.979,17.52 27.155,16.343 27.155,14.892L27.155,2.628C27.155,1.177 25.979,0 24.527,0L0,0C-1.451,0 -2.628,1.177 -2.628,2.628L-2.628,14.892C-2.628,16.343 -1.451,17.52 0,17.52" style="fill:rgb(77,79,82);fill-rule:nonzero;"/>
    </g>
    <g transform="matrix(4.16667,0,0,4.16667,2139,261.308)">
        <path d="M0,17.52L24.527,17.52C25.979,17.52 27.155,16.343 27.155,14.892L27.155,2.628C27.155,1.177 25.979,0 24.527,0L0,0C-1.451,0 -2.628,1.177 -2.628,2.628L-2.628,14.892C-2.628,16.343 -1.451,17.52 0,17.52" style="fill:rgb(77,79,82);fill-rule:nonzero;"/>
    </g>
    <g transform="matrix(4.16667,0,0,4.16667,2285,261.308)">
        <path d="M0,17.52L24.527,17.52C25.979,17.52 27.155,16.343 27.155,14.892L27.155,2.628C27.155,1.177 25.979,0 24.527,0L0,0C-1.451,0 -2.628,1.177 -2.628,2.628L-2.628,14.892C-2.628,16.343 -1.451,17.52 0,17.52" style="fill:rgb(77,79,82);fill-rule:nonzero;"/>
    </g>
    <g transform="matrix(4.16667,0,0,4.16667,2431,261.308)">
        <path d="M0,17.52L24.527,17.52C25.979,17.52 27.155,16.343 27.155,14.892L27.155,2.628C27.155,1.177 25.979,0 24.527,0L0,0C-1.451,0 -2.628,1.177 -2.628,2.628L-2.628,14.892C-2.628,16.343 -1.451,17.52 0,17.52" style="fill:rgb(77,79,82);fill-rule:nonzero;"/>
    </g>
    <g transform="matrix(4.16667,0,0,4.16667,2576.99,261.308)">
        <path d="M0,17.52L24.527,17.52C25.979,17.52 27.155,16.343 27.155,14.892L27.155,2.628C27.155,1.177 25.979,0 24.527,0L0,0C-1.451,0 -2.628,1.177 -2.628,2.628L-2.628,14.892C-2.628,16.343 -1.451,17.52 0,17.52" style="fill:rgb(77,79,82);fill-rule:nonzero;"/>
    </g>
    <g transform="matrix(4.16667,0,0,4.16667,2825.19,334.31)">
        <path d="M0,-17.52L-24.527,-17.52C-25.979,-17.52 -27.155,-16.343 -27.155,-14.892L-27.155,-2.628C-27.155,-1.177 -25.979,0 -24.527,0L0,0C1.451,0 2.628,-1.177 2.628,-2.628L2.628,-14.892C2.628,-16.343 1.451,-17.52 0,-17.52" style="fill:rgb(77,79,82);fill-rule:nonzero;"/>
    </g>
    <g transform="matrix(4.16667,0,0,4.16667,1484.35,1790.8)">
        <path d="M0,-136.062C-4.978,-136.062 -9.027,-132.012 -9.027,-127.035L-9.027,-9.028C-9.027,-4.05 -4.978,0 0,0L166.193,0C171.17,0 175.22,-4.05 175.22,-9.028L175.22,-127.035C175.22,-132.012 171.17,-136.062 166.193,-136.062L0,-136.062ZM166.193,0.584L0,0.584C-5.3,0.584 -9.611,-3.728 -9.611,-9.028L-9.611,-127.035C-9.611,-132.335 -5.3,-136.646 0,-136.646L166.193,-136.646C171.493,-136.646 175.804,-132.335 175.804,-127.035L175.804,-9.028C175.804,-3.728 171.493,0.584 166.193,0.584" style="fill:rgb(159,158,160);fill-rule:nonzero;"/>
    </g>
    <g transform="matrix(4.16667,0,0,4.16667,3529.62,0)">
        <path d="M0,16.643L-817.579,16.643L-817.579,12.84C-817.579,5.749 -811.831,0 -804.74,0L-12.839,0C-5.748,0 0,5.749 0,12.84L0,16.643Z" style="fill:rgb(223,223,224);fill-rule:nonzero;"/>
    </g>
    <g transform="matrix(-4.16667,0,0,4.16667,3524.02,-2253.1)">
        <rect x="669.881" y="603.459" width="51.68" height="186.875" style="fill:rgb(214,214,214);"/>
    </g>
    <g transform="matrix(-4.16667,0,0,4.16667,8334.36,-2253.1)">
        <rect x="1247.12" y="603.459" width="51.68" height="186.875" style="fill:rgb(214,214,214);"/>
    </g>
    <g transform="matrix(4.16667,0,0,4.16667,826.874,2234.41)">
        <path d="M0,157.879L-72.277,200.672C-79.406,204.893 -88.605,202.535 -92.826,195.407L-196.355,20.548C-200.575,13.42 -198.218,4.22 -191.09,0L-118.812,-42.793C-111.684,-47.014 -102.484,-44.656 -98.264,-37.528L5.265,137.331C9.485,144.459 7.128,153.659 0,157.879" style="fill:rgb(237,238,239);fill-rule:nonzero;"/>
    </g>
    <g transform="matrix(-3.58537,2.12278,2.12278,3.58537,-31.3291,2539.81)">
        <rect x="-142.392" y="-38.991" width="100.496" height="191.99" style="fill:rgb(77,79,82);"/>
    </g>
</svg>
