<?xml version="1.0" encoding="UTF-8" standalone="no"?>
<!DOCTYPE svg PUBLIC "-//W3C//DTD SVG 1.1//EN" "http://www.w3.org/Graphics/SVG/1.1/DTD/svg11.dtd">
<svg width="100%" height="100%" viewBox="0 0 67 40" version="1.1" xmlns="http://www.w3.org/2000/svg" xmlns:xlink="http://www.w3.org/1999/xlink" xml:space="preserve" xmlns:serif="http://www.serif.com/" style="fill-rule:evenodd;clip-rule:evenodd;stroke-linejoin:round;stroke-miterlimit:2;">
    <path d="M25.764,20.638C25.732,20.638 26.118,21.454 26.129,21.454C26.97,22.956 28.593,23.89 31.33,24.149C30.94,24.44 30.471,24.993 30.406,25.632C29.914,25.944 28.926,26.047 28.159,25.809C27.082,25.475 26.67,23.381 25.059,23.68C24.71,23.744 24.779,23.97 25.081,24.163C25.572,24.475 26.034,24.866 26.391,25.698C26.665,26.337 27.24,27.478 29.061,27.478C29.784,27.478 30.29,27.392 30.29,27.392C30.29,27.392 30.304,29.023 30.304,29.657C30.304,30.388 29.299,30.594 29.299,30.946C29.299,31.085 29.632,31.098 29.899,31.098C30.427,31.098 31.524,30.665 31.524,29.905C31.524,29.301 31.535,27.272 31.535,26.916C31.535,26.14 31.958,25.894 31.958,25.894C31.958,25.894 32.01,30.038 31.857,30.594C31.677,31.247 31.351,31.155 31.351,31.446C31.351,31.879 32.673,31.553 33.111,30.601C33.45,29.861 33.302,25.795 33.302,25.795L33.663,25.787C33.663,25.787 33.683,27.648 33.671,28.499C33.658,29.38 33.597,30.494 34.13,31.02C34.48,31.365 35.613,31.971 35.613,31.417C35.613,31.096 34.992,30.831 34.992,29.96L34.992,25.951C35.488,25.951 35.413,27.269 35.413,27.269L35.45,29.719C35.45,29.719 35.34,30.611 36.432,30.984C36.817,31.117 37.641,31.153 37.68,30.93C37.719,30.707 36.687,30.376 36.678,29.686C36.672,29.264 36.697,29.018 36.697,27.186C36.697,25.355 36.447,24.678 35.575,24.138C38.266,23.866 39.932,23.212 40.744,21.46C40.807,21.461 41.075,20.641 41.04,20.641C41.222,19.98 41.32,19.197 41.339,18.27C41.335,15.757 40.111,14.868 39.876,14.451C40.222,12.548 39.818,11.682 39.63,11.385C38.936,11.143 37.218,12.009 36.278,12.619C34.747,12.179 31.51,12.221 30.296,12.733C28.057,11.157 26.872,11.398 26.872,11.398C26.872,11.398 26.106,12.747 26.67,14.721C25.933,15.644 25.384,16.297 25.384,18.027C25.384,19.003 25.501,19.876 25.764,20.638ZM33.201,38.209C23.31,38.209 15.291,30.19 15.291,20.299C15.291,10.407 23.31,2.388 33.201,2.388C43.093,2.388 51.112,10.407 51.112,20.299C51.112,30.19 43.093,38.209 33.201,38.209Z" style="fill:rgb(46,76,126);"/>
</svg>
