<?xml version="1.0" encoding="UTF-8" standalone="no"?>
<!DOCTYPE svg PUBLIC "-//W3C//DTD SVG 1.1//EN" "http://www.w3.org/Graphics/SVG/1.1/DTD/svg11.dtd">
<svg width="100%" height="100%" viewBox="0 0 67 40" version="1.1" xmlns="http://www.w3.org/2000/svg" xmlns:xlink="http://www.w3.org/1999/xlink" xml:space="preserve" xmlns:serif="http://www.serif.com/" style="fill-rule:evenodd;clip-rule:evenodd;stroke-linejoin:round;stroke-miterlimit:2;">
    <path d="M43.85,28.739L43.85,21.746C43.85,18 41.85,16.257 39.184,16.257C37.033,16.257 36.068,17.441 35.531,18.271L35.531,16.543L31.477,16.543C31.531,17.688 31.477,28.739 31.477,28.739L35.531,28.739L35.531,21.928C35.531,21.564 35.557,21.2 35.665,20.94C35.957,20.211 36.624,19.457 37.744,19.457C39.211,19.457 39.797,20.576 39.797,22.214L39.797,28.739L43.85,28.739L43.85,28.739ZM27.207,14.879C28.62,14.879 29.501,13.941 29.501,12.771C29.474,11.575 28.62,10.664 27.234,10.664C25.847,10.664 24.941,11.574 24.941,12.771C24.941,13.941 25.821,14.879 27.181,14.879L27.207,14.879ZM33.799,38.209C23.907,38.209 15.888,30.19 15.888,20.299C15.888,10.407 23.907,2.388 33.799,2.388C43.69,2.388 51.709,10.407 51.709,20.299C51.709,30.19 43.69,38.209 33.799,38.209ZM29.234,28.739L29.234,16.543L25.181,16.543L25.181,28.739L29.234,28.739Z" style="fill:rgb(46,76,126);"/>
</svg>
