<?xml version="1.0" encoding="UTF-8" standalone="no"?>
<!DOCTYPE svg PUBLIC "-//W3C//DTD SVG 1.1//EN" "http://www.w3.org/Graphics/SVG/1.1/DTD/svg11.dtd">
<svg width="100%" height="100%" viewBox="0 0 57 40" version="1.1" xmlns="http://www.w3.org/2000/svg" xmlns:xlink="http://www.w3.org/1999/xlink" xml:space="preserve" xmlns:serif="http://www.serif.com/" style="fill-rule:evenodd;clip-rule:evenodd;stroke-linejoin:round;stroke-miterlimit:2;">
    <path d="M28.348,3.639C18.752,3.639 10.973,11.419 10.973,21.013C10.973,30.608 18.752,38.386 28.348,38.386C37.943,38.386 45.72,30.608 45.72,21.013C45.72,11.419 37.942,3.639 28.348,3.639ZM37.099,17.51C37.108,17.697 37.112,17.886 37.112,18.076C37.112,23.863 32.708,30.534 24.655,30.534C22.182,30.534 19.88,29.809 17.943,28.567C18.286,28.607 18.633,28.628 18.987,28.628C21.039,28.628 22.927,27.928 24.425,26.754C22.509,26.718 20.893,25.451 20.335,23.712C20.602,23.764 20.876,23.791 21.159,23.791C21.558,23.791 21.945,23.738 22.312,23.637C20.308,23.235 18.799,21.464 18.799,19.345C18.799,19.326 18.799,19.307 18.8,19.288C19.39,19.617 20.065,19.813 20.783,19.837C19.608,19.05 18.835,17.712 18.835,16.192C18.835,15.39 19.051,14.637 19.428,13.99C21.588,16.639 24.814,18.383 28.453,18.565C28.379,18.245 28.34,17.91 28.34,17.567C28.34,15.15 30.3,13.189 32.718,13.189C33.978,13.189 35.115,13.721 35.914,14.571C36.912,14.376 37.849,14.01 38.695,13.509C38.366,14.532 37.673,15.39 36.768,15.931C37.655,15.825 38.499,15.589 39.284,15.241C38.698,16.121 37.955,16.892 37.099,17.51Z" style="fill:rgb(46,76,126);fill-rule:nonzero;"/>
</svg>
